<?xml version="1.0" encoding="iso-8859-1"?>
<!-- Generator: Adobe Illustrator 18.1.1, SVG Export Plug-In . SVG Version: 6.00 Build 0)  -->
<svg version="1.1" id="Capa_1" xmlns="http://www.w3.org/2000/svg" xmlns:xlink="http://www.w3.org/1999/xlink" x="0px" y="0px"
	 viewBox="0 0 208.167 208.167" style="enable-background:new 0 0 208.167 208.167;" xml:space="preserve">
<g>
	<path style="fill:#010002;" d="M195.557,108.607c0.19-29.934-22.207-44.532-41.976-57.405l-0.236-0.15
		c-4.313-2.82-8.382-5.486-11.986-8.171C124.12,29.959,109.028,9.738,107.267,2.419c-0.354-1.428-1.593-2.376-3.235-2.419
		c-1.163,0.093-2.509,0.859-2.91,2.326c-2.011,7.269-15.181,26.906-34.225,40.108c-3.038,2.112-6.313,4.177-10.1,6.571
		C37.025,61.531,12.399,77.124,12.61,108.228c0.247,38.483,23.649,56.005,45.283,56.005c14.076,0,27.768-6.925,37.875-19.086
		c-4.363,20.868-17.647,46.808-55.433,56.778c-1.532,0.412-2.53,1.915-2.341,3.486c0.211,1.571,1.568,2.756,3.16,2.756h125.908
		c1.757,0,3.174-1.417,3.174-3.174c0-1.535-1.135-2.924-2.441-3.074c-1.657-0.501-40.069-12.494-53.303-55.723
		c10.01,10.579,23.22,16.602,36.579,16.609C173.046,162.798,195.303,146.039,195.557,108.607z M107.074,129.218
		c-1.442,0.508-2.319,1.961-2.086,3.461c5.959,40.334,31.197,60.368,47.048,69.143H59.196
		c36.043-17.139,43.505-50.845,44.721-69.684c0.072-1.46-0.898-2.82-2.301-3.217c-1.364-0.383-2.995,0.293-3.683,1.564
		c-9.062,17.161-24.028,27.403-40.037,27.403c-18.606,0-38.73-15.554-38.938-49.714c-0.19-27.557,22.783-42.123,41.257-53.822
		l0.462-0.29c3.303-2.097,6.725-4.273,9.835-6.428c16.141-11.184,28.073-26.526,33.666-36.687
		c4.649,8.163,16.337,24.218,33.391,36.995c3.783,2.849,8.013,5.604,12.111,8.274l0.444,0.304
		c18.417,11.996,39.271,25.596,39.095,52.033c-0.204,33.079-19.304,47.899-38.136,47.899c-15.99,0-31.029-9.641-40.205-25.804
		C110.159,129.379,108.57,128.724,107.074,129.218z"/>
</g>
<g>
</g>
<g>
</g>
<g>
</g>
<g>
</g>
<g>
</g>
<g>
</g>
<g>
</g>
<g>
</g>
<g>
</g>
<g>
</g>
<g>
</g>
<g>
</g>
<g>
</g>
<g>
</g>
<g>
</g>
</svg>
